<?xml version="1.0" standalone="no"?>
<!DOCTYPE svg PUBLIC "-//W3C//DTD SVG 20010904//EN"
 "http://www.w3.org/TR/2001/REC-SVG-20010904/DTD/svg10.dtd">
<svg version="1.0" xmlns="http://www.w3.org/2000/svg"
 width="920.000000pt" height="512.000000pt" viewBox="0 0 920.000000 512.000000"
 preserveAspectRatio="xMidYMid meet">

<g transform="translate(0.000000,512.000000) scale(0.100000,-0.100000)"
fill="#000000" stroke="none">
<path d="M5500 4906 c-10 -13 -13 -40 -11 -100 16 -484 -279 -835 -801 -951
-48 -10 -83 -24 -95 -37 -18 -21 -18 -21 37 -15 91 10 119 17 234 57 60 22
114 36 120 33 6 -3 8 -2 3 2 -9 11 112 77 126 68 6 -3 7 -1 3 5 -7 11 7 17 29
12 5 -1 7 2 3 6 -9 8 63 64 75 57 4 -2 6 0 5 5 -2 5 20 32 47 61 28 29 60 63
73 77 12 13 22 25 20 26 -1 2 6 15 16 30 10 15 15 32 11 37 -4 7 1 8 11 4 12
-4 15 -3 10 5 -4 7 -2 12 4 12 6 0 8 5 5 10 -3 6 -1 10 5 10 6 0 8 5 5 10 -3
6 -1 10 4 10 6 0 10 3 9 8 -1 4 4 24 11 44 7 21 9 43 5 49 -4 7 -3 9 3 6 11
-7 38 81 36 116 0 9 4 17 10 17 6 0 2 7 -9 15 -19 15 -19 15 1 8 18 -6 19 -5
5 12 -9 11 -10 16 -2 11 9 -5 12 4 13 36 0 24 1 68 2 98 1 30 0 79 -3 109 -5
49 -6 53 -20 37z"/>
<path d="M6340 3332 c-232 -237 -392 -535 -431 -801 -30 -206 23 -444 124
-556 l36 -40 -34 65 c-18 36 -46 106 -61 155 -24 80 -27 107 -28 240 0 128 3
162 23 235 13 47 30 97 37 111 7 15 10 29 7 33 -4 3 0 6 7 6 7 0 11 3 7 6 -16
16 126 259 212 363 111 136 129 160 123 167 -4 4 -2 4 4 1 6 -3 18 3 27 14 10
11 23 17 30 13 7 -5 6 0 -3 12 -8 10 -11 16 -6 12 12 -10 70 47 62 61 -14 22
-33 9 -136 -97z"/>
<path d="M6582 1467 c-6 -7 -27 -65 -46 -128 -100 -330 -253 -596 -466 -810
-172 -173 -336 -272 -498 -300 -121 -21 -291 8 -530 92 -243 85 -299 100 -382
100 -82 0 -103 -6 -360 -104 -361 -138 -558 -113 -825 103 -85 70 -242 232
-286 297 -18 26 -36 50 -39 53 -11 9 -157 233 -180 278 -12 23 -26 42 -32 42
-5 0 -6 5 -3 10 3 5 1 10 -5 10 -6 0 -9 4 -5 9 3 5 1 13 -5 16 -6 4 -28 41
-50 83 -64 126 -45 68 25 -77 238 -489 548 -823 864 -930 48 -17 88 -22 155
-22 155 1 226 17 441 103 82 33 157 61 165 63 8 2 15 4 15 5 0 2 10 4 65 18
40 9 87 9 145 -2 44 -8 52 -11 263 -85 296 -104 484 -131 631 -91 96 27 230
96 316 164 38 30 73 52 77 49 5 -2 7 -1 6 4 -4 12 128 143 137 135 3 -4 5 -2
3 3 -4 14 27 56 36 47 4 -4 6 -2 4 3 -3 10 76 126 83 122 2 -1 3 -1 2 1 -1 2
21 40 49 85 63 104 149 282 182 378 36 105 76 248 76 270 0 22 -13 25 -28 6z"/>
</g>
</svg>
